# xmcd
#
# Track frame offsets: 
#        150
#        20329
#        41506
#        60632
#        75059
#        93263
#        113665
#        132392
#        153295
#        172288
#
# Disc length: 2585 seconds
#
# Revision: 8
# Processed by: cddbd v1.5.2PL0 Copyright (c) Steve Scherf et al.
# Submitted via: ExactAudioCopyFreeDBPlugin 1.0
#
DISCID=700a170a
DTITLE=李宗盛 - 愛的代價 - 愛情論
DYEAR=2004
DGENRE=Pop
TTITLE0=愛的代價
TTITLE1=我是真的愛你
TTITLE2=你像個孩子
TTITLE3=愛情少尉
TTITLE4=沒有人知道
TTITLE5=我有話要說哦
TTITLE6=十七歲女生的溫柔
TTITLE7=和自己賽跑的人
TTITLE8=如果你要離去
TTITLE9=聽見有人叫你寶貝
EXTD=YEAR: 2004
EXTT0=
EXTT1=
EXTT2=
EXTT3=
EXTT4=
EXTT5=
EXTT6=
EXTT7=
EXTT8=
EXTT9=
PLAYORDER=
